# xmcd
#
# Track frame offsets: 
#        150
#        11460
#        25733
#        37822
#        49445
#        61225
#        71810
#        84472
#        96866
#        108375
#        119812
#        133200
#        148320
#
# Disc length: 2156 seconds
#
# Revision: 1
# Processed by: cddbd v1.5.2PL0 Copyright (c) Steve Scherf et al.
# Submitted via: ExactAudioCopyFreeDBPlugin 1.0
#
DISCID=bd086a0d
DTITLE=The Western Flyers - Wild Blue Yonder
DYEAR=2016
DGENRE=Country
TTITLE0=You're From Texas
TTITLE1=Along the Navajo Trail
TTITLE2=Carroll County Blues
TTITLE3=No Moon at All
TTITLE4=I'm Gonna' Sit Right Down and Write Myself a Letter
TTITLE5=Old Fashioned Love
TTITLE6=Sweet Georgia Brown
TTITLE7=Never No More
TTITLE8=Heart Over Mind
TTITLE9=The Wild Dog
TTITLE10=Tennessee Waltz
TTITLE11=Texas Fiddle Medley
TTITLE12=I'll See You in My Dreams
EXTD=
EXTT0=
EXTT1=
EXTT2=
EXTT3=
EXTT4=
EXTT5=
EXTT6=
EXTT7=
EXTT8=
EXTT9=
EXTT10=
EXTT11=
EXTT12=
PLAYORDER=
